<svg width="15" height="15" viewBox="0 0 15 15" fill="none" xmlns="http://www.w3.org/2000/svg">
<path d="M5.33301 8.94401C5.33301 10.1407 7.2729 11.1107 9.66634 11.1107C12.0598 11.1107 13.9997 10.1407 13.9997 8.94401C13.9997 7.74729 12.0598 6.77734 9.66634 6.77734C7.2729 6.77734 5.33301 7.74729 5.33301 8.94401Z" stroke="#818181" stroke-width="2" stroke-linecap="round" stroke-linejoin="round"/>
<path d="M5.33333 8.94444V11.8333C5.33333 13.0293 7.27322 14 9.66667 14C12.0601 14 14 13.0293 14 11.8333V8.94444M1 3.16667C1 3.94089 1.82622 4.65589 3.16667 5.043C4.50711 5.43011 6.15956 5.43011 7.5 5.043C8.84044 4.65589 9.66667 3.94089 9.66667 3.16667C9.66667 2.39244 8.84044 1.67744 7.5 1.29033C6.15956 0.903222 4.50711 0.903222 3.16667 1.29033C1.82622 1.67744 1 2.39244 1 3.16667Z" stroke="#818181" stroke-width="2" stroke-linecap="round" stroke-linejoin="round"/>
<path d="M1 3.16602V10.3882C1 11.0296 1.55756 11.4355 2.44444 11.8327" stroke="#818181" stroke-width="2" stroke-linecap="round" stroke-linejoin="round"/>
<path d="M1 6.77734C1 7.41868 1.55756 7.82457 2.44444 8.22179" stroke="#818181" stroke-width="2" stroke-linecap="round" stroke-linejoin="round"/>
</svg>
