<svg width="13" height="15" viewBox="0 0 13 15" fill="none" xmlns="http://www.w3.org/2000/svg">
<path d="M13 1.47333H12V0.687801C12 0.3094 11.7105 0 11.3575 0H8.1415C7.7895 0 7.5 0.3094 7.5 0.687801V1.47333H1.48525L0 4.42H1.03125V6.38444H0.86425L0.03125 7.36667L0.86425 8.34889H1.04675V8.87634C1.04675 9.00968 1.1515 9.11748 1.28125 9.11748C1.669 9.11748 1.9845 9.44259 1.9845 9.84211C1.9845 10.2416 1.669 10.5667 1.28125 10.5667C0.8935 10.5667 0.578 10.2416 0.578 9.84211C0.578 9.70878 0.473 9.60098 0.3435 9.60098C0.21375 9.60098 0.109 9.70878 0.109 9.84211C0.1095 10.5086 0.635 11.05 1.28125 11.05C1.92725 11.05 2.45325 10.5086 2.45325 9.84236C2.45325 9.25916 2.05 8.771 1.51575 8.65927V8.34889H1.698L2.53125 7.36667L1.698 6.38444H1.53125V4.42H7.5V6.18775C7.5 6.51385 7.71525 6.78716 8 6.85738V14.7333H8.65625V13.26L10.8438 13.9967L8.65625 14.7333H11.5V6.85714C11.785 6.78716 12 6.51385 12 6.18775V4.42H13V3.68333H12.4805L13 2.71462V1.47333ZM1.16075 3.68333L1.74475 2.50491L2.37625 3.68333H1.16075ZM2.26625 2.21H3.3045L2.7855 3.17872L2.26625 2.21ZM3.19475 3.68333L3.714 2.71462L4.2335 3.68333H3.19475ZM4.1235 2.21H5.16175L4.6425 3.17872L4.1235 2.21ZM5.05225 3.68333L5.57125 2.71462L6.09025 3.68333H5.05225ZM5.98075 2.21H7.019L6.5 3.17872L5.98075 2.21ZM7.5 3.68333H6.90925L7.42825 2.71462L7.5 2.84844V3.68333ZM10.8438 13.26L8.65625 12.5233L10.8438 11.7867V13.26ZM8.65625 11.7867V10.3133L10.8438 11.0505L8.65625 11.7867ZM10.8438 10.3133L8.65625 9.57667L10.8438 8.84V10.3133ZM8.65625 8.84V7.36716L10.8438 8.10333L8.65625 8.84ZM10.8438 7.36716L9.385 6.87556H10.8438V7.36716ZM11.2188 3.25312C11.2188 3.48959 11.0498 3.68333 10.8438 3.68333H8.59325C8.38725 3.68333 8.21875 3.48959 8.21875 3.25312V1.16835C8.21875 0.93041 8.38725 0.736667 8.59325 0.736667H10.8438C11.0498 0.736667 11.2188 0.93041 11.2188 1.16835V3.25312ZM12.0712 3.17872L12 3.04563V2.21H12.5903L12.0712 3.17872Z" fill="#4A3B28"/>
</svg>
