<svg width="12" height="11" viewBox="0 0 12 11" fill="none" xmlns="http://www.w3.org/2000/svg">
<path d="M9.66667 5.03625C9.40145 5.03625 9.1471 4.94782 8.95956 4.79041C8.77202 4.63299 8.66667 4.4195 8.66667 4.19688C8.66667 3.97426 8.77202 3.76076 8.95956 3.60335C9.1471 3.44594 9.40145 3.3575 9.66667 3.3575C9.93188 3.3575 10.1862 3.44594 10.3738 3.60335C10.5613 3.76076 10.6667 3.97426 10.6667 4.19688C10.6667 4.4195 10.5613 4.63299 10.3738 4.79041C10.1862 4.94782 9.93188 5.03625 9.66667 5.03625ZM7.66667 2.79792C7.40145 2.79792 7.1471 2.70949 6.95956 2.55207C6.77202 2.39466 6.66667 2.18116 6.66667 1.95854C6.66667 1.73593 6.77202 1.52243 6.95956 1.36502C7.1471 1.2076 7.40145 1.11917 7.66667 1.11917C7.93188 1.11917 8.18624 1.2076 8.37377 1.36502C8.56131 1.52243 8.66667 1.73593 8.66667 1.95854C8.66667 2.18116 8.56131 2.39466 8.37377 2.55207C8.18624 2.70949 7.93188 2.79792 7.66667 2.79792ZM4.33333 2.79792C4.06812 2.79792 3.81376 2.70949 3.62623 2.55207C3.43869 2.39466 3.33333 2.18116 3.33333 1.95854C3.33333 1.73593 3.43869 1.52243 3.62623 1.36502C3.81376 1.2076 4.06812 1.11917 4.33333 1.11917C4.59855 1.11917 4.8529 1.2076 5.04044 1.36502C5.22798 1.52243 5.33333 1.73593 5.33333 1.95854C5.33333 2.18116 5.22798 2.39466 5.04044 2.55207C4.8529 2.70949 4.59855 2.79792 4.33333 2.79792ZM2.33333 5.03625C2.06812 5.03625 1.81376 4.94782 1.62623 4.79041C1.43869 4.63299 1.33333 4.4195 1.33333 4.19688C1.33333 3.97426 1.43869 3.76076 1.62623 3.60335C1.81376 3.44594 2.06812 3.3575 2.33333 3.3575C2.59855 3.3575 2.8529 3.44594 3.04044 3.60335C3.22798 3.76076 3.33333 3.97426 3.33333 4.19688C3.33333 4.4195 3.22798 4.63299 3.04044 4.79041C2.8529 4.94782 2.59855 5.03625 2.33333 5.03625ZM6 0C4.4087 0 2.88258 0.530604 1.75736 1.47508C0.632141 2.41957 0 3.70056 0 5.03625C0 6.37195 0.632141 7.65294 1.75736 8.59742C2.88258 9.54191 4.4087 10.0725 6 10.0725C6.26522 10.0725 6.51957 9.98408 6.70711 9.82666C6.89464 9.66925 7 9.45575 7 9.23313C7 9.0149 6.9 8.81904 6.74 8.67355C6.58667 8.52246 6.48667 8.32661 6.48667 8.11397C6.48667 7.89135 6.59202 7.67785 6.77956 7.52044C6.9671 7.36303 7.22145 7.27459 7.48667 7.27459H8.66667C9.55072 7.27459 10.3986 6.97981 11.0237 6.4551C11.6488 5.93039 12 5.21873 12 4.47667C12 2.00331 9.31333 0 6 0Z" fill="#A9761D"/>
</svg>
