<svg width="11" height="11" viewBox="0 0 11 11" fill="none" xmlns="http://www.w3.org/2000/svg">
<path fill-rule="evenodd" clip-rule="evenodd" d="M3.92857 0C3.82438 0 3.72445 0.0413902 3.65078 0.115065C3.5771 0.18874 3.53571 0.288665 3.53571 0.392857V3.53571H0.392857C0.288665 3.53571 0.18874 3.5771 0.115065 3.65078C0.0413902 3.72445 0 3.82438 0 3.92857L0 7.07143C0 7.17562 0.0413902 7.27555 0.115065 7.34922C0.18874 7.4229 0.288665 7.46429 0.392857 7.46429H3.53571V10.6071C3.53571 10.7113 3.5771 10.8113 3.65078 10.8849C3.72445 10.9586 3.82438 11 3.92857 11H7.07143C7.17562 11 7.27555 10.9586 7.34922 10.8849C7.4229 10.8113 7.46429 10.7113 7.46429 10.6071V7.46429H10.6071C10.7113 7.46429 10.8113 7.4229 10.8849 7.34922C10.9586 7.27555 11 7.17562 11 7.07143V3.92857C11 3.82438 10.9586 3.72445 10.8849 3.65078C10.8113 3.5771 10.7113 3.53571 10.6071 3.53571H7.46429V0.392857C7.46429 0.288665 7.4229 0.18874 7.34922 0.115065C7.27555 0.0413902 7.17562 0 7.07143 0L3.92857 0Z" fill="#852A39"/>
</svg>
