<svg width="15" height="14" viewBox="0 0 15 14" fill="none" xmlns="http://www.w3.org/2000/svg">
<path fill-rule="evenodd" clip-rule="evenodd" d="M5.87143 0.609457C6.47656 0.80125 7.0594 1.05451 7.61035 1.36509C8.1613 1.05451 8.74414 0.80125 9.34927 0.609457C10.865 0.141894 12.3748 0.225129 13.3781 1.20441C14.3814 2.18368 14.4667 3.65803 13.9876 5.13671C13.7911 5.72734 13.5316 6.29621 13.2134 6.83398C13.5516 7.41518 13.8104 7.9848 13.9876 8.53125C14.4667 10.0099 14.3814 11.4843 13.3781 12.4636C12.3755 13.4428 10.8642 13.5261 9.34927 13.0585C8.74414 12.8667 8.1613 12.6135 7.61035 12.3029C7.0594 12.6135 6.47656 12.8667 5.87143 13.0585C4.35646 13.5254 2.84594 13.4428 1.84263 12.4636C0.83932 11.4843 0.754784 10.0099 1.23308 8.53125C1.41031 7.98407 1.66911 7.41518 2.00725 6.83398C1.68906 6.29623 1.42958 5.72735 1.23308 5.13671C0.754784 3.6573 0.840062 2.18368 1.84263 1.20441C2.84594 0.225129 4.35646 0.141894 5.87143 0.609457ZM12.2747 8.21568C11.8371 8.77879 11.3299 9.34478 10.7567 9.90499C10.215 10.4365 9.63672 10.9312 9.02596 11.3858C9.29217 11.5045 9.54949 11.6023 9.79642 11.6783C11.0556 12.0662 11.8846 11.8737 12.3295 11.4394C12.7745 11.0059 12.9717 10.196 12.5742 8.96769C12.4903 8.71104 12.3902 8.45965 12.2747 8.21496V8.21568ZM2.94604 8.21568C2.83081 8.46017 2.73101 8.71131 2.6472 8.96769C2.24974 10.1967 2.44699 11.0059 2.89191 11.4401C3.3361 11.8744 4.16588 12.0662 5.42428 11.6783C5.67196 11.6023 5.92853 11.5045 6.19549 11.3858C5.58473 10.9312 5.00646 10.4365 4.46472 9.90499C3.91996 9.37625 3.41206 8.81183 2.94604 8.21568ZM7.61035 3.07032C6.85795 3.57744 6.15585 4.15222 5.51327 4.78713C4.86277 5.41432 4.27389 6.0996 3.75433 6.83398C4.27343 7.56829 4.86182 8.25357 5.51178 8.88084C6.22589 9.57784 6.93258 10.1475 7.61035 10.5977C8.36275 10.0905 9.06485 9.51575 9.70743 8.88084C10.3577 8.25361 10.9463 7.56834 11.4656 6.83398C10.9466 6.09965 10.3582 5.41437 9.70818 4.78713C9.06534 4.15219 8.363 3.57741 7.61035 3.07032ZM7.61035 5.74831C7.90535 5.74831 8.18828 5.86269 8.39688 6.0663C8.60548 6.2699 8.72266 6.54605 8.72266 6.83398C8.72266 7.12192 8.60548 7.39807 8.39688 7.60167C8.18828 7.80527 7.90535 7.91966 7.61035 7.91966C7.31535 7.91966 7.03242 7.80527 6.82382 7.60167C6.61523 7.39807 6.49804 7.12192 6.49804 6.83398C6.49804 6.54605 6.61523 6.2699 6.82382 6.0663C7.03242 5.86269 7.31535 5.74831 7.61035 5.74831ZM2.89117 2.22783C2.44624 2.6621 2.24974 3.47129 2.6472 4.70027C2.72506 4.94129 2.82517 5.19245 2.94679 5.45301C3.3843 4.88846 3.89077 4.32318 4.46472 3.76298C5.00623 3.23154 5.58424 2.73677 6.19474 2.28212C5.94428 2.16939 5.68698 2.07174 5.42428 1.98971C4.16588 1.60176 3.3361 1.79429 2.89117 2.22783ZM9.79642 1.98971C9.54949 2.06571 9.29217 2.16342 9.02596 2.28212C9.60288 2.70915 10.1828 3.20349 10.7567 3.76298C11.3015 4.29172 11.8086 4.85613 12.2747 5.45228C12.3963 5.19245 12.4956 4.94129 12.5735 4.70027C12.9717 3.47129 12.7745 2.6621 12.3295 2.22783C11.8846 1.79357 11.0556 1.60176 9.79642 1.98971Z" fill="#B7763A"/>
</svg>
