<svg width="12" height="12" viewBox="0 0 12 12" fill="none" xmlns="http://www.w3.org/2000/svg">
<path d="M9.09525 4.54589C9.46498 4.19676 9.76076 3.98728 9.98259 3.7778C11.1657 2.66058 12.3488 0.914924 11.6094 0.216661C10.8699 -0.481601 9.09525 0.635619 7.91213 1.75284C7.69029 1.96232 7.46846 2.24162 7.09873 2.59075L1.92257 0.356314C1.40496 0.146835 0.813397 0.216661 0.443671 0.565793L0 0.914924L4.88038 4.89502C3.91909 6.01224 2.88386 7.05963 2.36624 7.68807L1.55285 7.26911C1.18312 7.05963 0.665506 7.05963 0.369726 7.40876L0.14789 7.61824L2.21835 9.08459L3.69726 11.0397L3.91909 10.8302C4.21487 10.5509 4.28882 10.0622 4.06698 9.71303L3.69726 8.94494C4.36276 8.45616 5.47194 7.47859 6.65506 6.57085L10.8699 11.1794L11.2397 10.8302C11.6094 10.4811 11.6833 9.92251 11.4615 9.43372L9.09525 4.54589Z" fill="#B05731"/>
</svg>
