<svg width="14" height="12" viewBox="0 0 14 12" fill="none" xmlns="http://www.w3.org/2000/svg">
<path d="M12.9231 2.88H10.2308C10.2308 2.11618 9.89039 1.38364 9.2845 0.843532C8.67861 0.303428 7.85685 0 7 0C6.14315 0 5.32139 0.303428 4.7155 0.843532C4.10961 1.38364 3.76923 2.11618 3.76923 2.88H1.07692C0.791305 2.88 0.517386 2.98114 0.315423 3.16118C0.113461 3.34121 0 3.58539 0 3.84V11.04C0 11.2946 0.113461 11.5388 0.315423 11.7188C0.517386 11.8989 0.791305 12 1.07692 12H12.9231C13.2087 12 13.4826 11.8989 13.6846 11.7188C13.8865 11.5388 14 11.2946 14 11.04V3.84C14 3.58539 13.8865 3.34121 13.6846 3.16118C13.4826 2.98114 13.2087 2.88 12.9231 2.88ZM4.84615 5.28C4.84615 5.4073 4.78942 5.52939 4.68844 5.61941C4.58746 5.70943 4.4505 5.76 4.30769 5.76C4.16488 5.76 4.02792 5.70943 3.92694 5.61941C3.82596 5.52939 3.76923 5.4073 3.76923 5.28V4.32C3.76923 4.1927 3.82596 4.07061 3.92694 3.98059C4.02792 3.89057 4.16488 3.84 4.30769 3.84C4.4505 3.84 4.58746 3.89057 4.68844 3.98059C4.78942 4.07061 4.84615 4.1927 4.84615 4.32V5.28ZM7 0.96C7.57124 0.96 8.11907 1.16228 8.523 1.52235C8.92692 1.88242 9.15385 2.37078 9.15385 2.88H4.84615C4.84615 2.37078 5.07308 1.88242 5.477 1.52235C5.88093 1.16228 6.42876 0.96 7 0.96ZM10.2308 5.28C10.2308 5.4073 10.174 5.52939 10.0731 5.61941C9.97208 5.70943 9.83512 5.76 9.69231 5.76C9.5495 5.76 9.41254 5.70943 9.31156 5.61941C9.21058 5.52939 9.15385 5.4073 9.15385 5.28V4.32C9.15385 4.1927 9.21058 4.07061 9.31156 3.98059C9.41254 3.89057 9.5495 3.84 9.69231 3.84C9.83512 3.84 9.97208 3.89057 10.0731 3.98059C10.174 4.07061 10.2308 4.1927 10.2308 4.32V5.28Z" fill="#D25A47"/>
</svg>
