<svg width="18" height="24" viewBox="0 0 18 24" fill="none" xmlns="http://www.w3.org/2000/svg">
<path d="M2.48766 23.7976C1.80334 23.7976 1.21786 23.574 0.73122 23.127C0.24374 22.6791 0 22.1255 0 21.4661V4.91444C0 4.2724 0.221963 3.70928 0.665888 3.22506C1.10981 2.74002 1.65718 2.43099 2.30799 2.29795L13.3366 0V18.1146L2.20497 20.4944C1.95285 20.5514 1.73173 20.6654 1.54159 20.8365C1.35146 21.0075 1.25639 21.2174 1.25639 21.4661C1.25639 21.7884 1.37868 22.0512 1.62326 22.2544C1.86867 22.4569 2.15723 22.5581 2.48891 22.5581H16.3331V3.96626H17.5895V23.7976H2.48766ZM2.9965 19.0752L4.25289 18.8187V3.17301L2.9965 3.42957V19.0752Z" fill="white"/>
</svg>
