<svg width="13" height="14" viewBox="0 0 13 14" fill="none" xmlns="http://www.w3.org/2000/svg">
<path d="M5.1133 13.3837L4.84414 11.2334C4.60671 11.1615 4.35019 11.049 4.07458 10.8958C3.79848 10.7421 3.56352 10.5776 3.36971 10.4021L1.3867 11.246L0 8.8295L1.71385 7.53723C1.69204 7.40241 1.67395 7.26361 1.65957 7.12085C1.64569 6.97859 1.63876 6.84029 1.63876 6.70596C1.63876 6.58105 1.64569 6.44969 1.65957 6.31188C1.67345 6.17408 1.69155 6.01893 1.71385 5.84643L0 4.55416L1.3867 2.16592L3.35558 2.99645C3.57765 2.81156 3.81806 2.64476 4.07681 2.49605C4.33457 2.34735 4.58564 2.23235 4.83002 2.15105L5.11256 0H7.8867L8.15586 2.16518C8.44088 2.26481 8.69269 2.37957 8.91129 2.50944C9.13039 2.63931 9.35568 2.8014 9.58717 2.99571L11.6133 2.16592L13 4.55416L11.2289 5.88956C11.2695 6.04322 11.2923 6.184 11.2973 6.31188C11.3023 6.44076 11.3047 6.56741 11.3047 6.69183C11.3047 6.80733 11.2998 6.92902 11.2899 7.05691C11.2804 7.18529 11.2586 7.34044 11.2244 7.52236L12.9673 8.8295L11.5806 11.246L9.58717 10.388C9.35568 10.5823 9.1227 10.7491 8.88824 10.8884C8.65328 11.0276 8.40915 11.1377 8.15586 11.2185L7.8867 13.3837H5.1133ZM6.47992 8.55067C6.99842 8.55067 7.43785 8.37049 7.79822 8.01012C8.15858 7.64976 8.33877 7.21033 8.33877 6.69183C8.33877 6.17334 8.15858 5.73391 7.79822 5.37354C7.43785 5.01317 6.99842 4.83299 6.47992 4.83299C5.95846 4.83299 5.51828 5.01317 5.1594 5.37354C4.80052 5.73391 4.62108 6.17334 4.62108 6.69183C4.62108 7.21033 4.80052 7.64976 5.1594 8.01012C5.51828 8.37049 5.95846 8.55067 6.47992 8.55067Z" fill="#602820"/>
</svg>
