<svg width="14" height="12" viewBox="0 0 14 12" fill="none" xmlns="http://www.w3.org/2000/svg">
<path d="M11.5141 6.94523C10.9548 7.28526 10.3123 7.46409 9.65769 7.46198C9.10928 7.45762 8.56708 7.34546 8.06196 7.13186C7.67266 7.68146 7.46431 8.33871 7.46589 9.01222V10.7322C7.46603 10.7961 7.45302 10.8595 7.42766 10.9182C7.40231 10.9769 7.36515 11.0298 7.31849 11.0735C7.27184 11.1173 7.21668 11.151 7.15646 11.1725C7.09623 11.1941 7.03222 11.203 6.96839 11.1988C6.84846 11.1883 6.73691 11.1329 6.65611 11.0437C6.57531 10.9545 6.53123 10.838 6.53272 10.7176V9.99205L4.28026 7.7396C3.94542 7.86451 3.5913 7.92985 3.23394 7.93265C2.74196 7.93386 2.2592 7.79925 1.83884 7.54363C0.567966 6.77143 -0.11617 4.99431 0.0162247 2.78793C0.0228908 2.67378 0.0712395 2.56605 0.152092 2.4852C0.232944 2.40435 0.34067 2.356 0.454818 2.34933C2.6612 2.21927 4.43832 2.90107 5.20819 4.17194C5.51066 4.67008 5.64271 5.25315 5.58437 5.833C5.58075 5.87792 5.56418 5.92084 5.53669 5.95655C5.50919 5.99226 5.47194 6.01925 5.42943 6.03424C5.38693 6.04923 5.34099 6.05159 5.29717 6.04103C5.25335 6.03046 5.21353 6.00744 5.18253 5.97472L4.06271 4.80242C3.9745 4.71861 3.85703 4.67258 3.73537 4.67414C3.6137 4.6757 3.49745 4.72472 3.41141 4.81076C3.32537 4.8968 3.27635 5.01305 3.27479 5.13472C3.27323 5.25638 3.31926 5.37385 3.40307 5.46206L6.54555 8.68444C6.54905 8.63894 6.55313 8.59345 6.55779 8.54854C6.65983 7.68346 7.04156 6.87535 7.64495 6.2471L10.5955 3.12912C10.6831 3.04165 10.7323 2.92297 10.7324 2.79921C10.7324 2.67545 10.6833 2.55674 10.5958 2.46919C10.5084 2.38164 10.3897 2.33242 10.2659 2.33237C10.1422 2.33231 10.0234 2.38142 9.93589 2.4689L7.07804 5.49122C7.04943 5.52152 7.01323 5.54361 6.9732 5.55518C6.93317 5.56676 6.89077 5.5674 6.85041 5.55704C6.81005 5.54668 6.7732 5.5257 6.74369 5.49628C6.71418 5.46686 6.69309 5.43007 6.68261 5.38974C6.40615 4.37024 6.52805 3.35541 7.05588 2.48406C8.09754 0.764682 10.5215 -0.155664 13.5403 0.0216399C13.6544 0.028306 13.7622 0.0766548 13.843 0.157507C13.9239 0.238359 13.9722 0.346085 13.9789 0.460233C14.1539 3.47964 13.2335 5.90357 11.5141 6.94523Z" fill="#032B00"/>
</svg>
