<svg width="13" height="13" viewBox="0 0 13 13" fill="none" xmlns="http://www.w3.org/2000/svg">
<path d="M7.10938 0.672414V1.7931H7.9097C8.15671 1.7931 8.39965 1.86483 8.61415 2.00021L9.66229 2.66007C9.69316 2.67979 9.72729 2.68966 9.76304 2.68966H11.5782C11.7398 2.68966 11.8948 2.7605 12.0091 2.8866C12.1234 3.0127 12.1876 3.18373 12.1876 3.36207C12.1876 3.5404 12.1234 3.71144 12.0091 3.83754C11.8948 3.96364 11.7398 4.03448 11.5782 4.03448H11.2312L12.9465 8.2411C12.9971 8.36555 13.0123 8.50408 12.99 8.63827C12.9676 8.77246 12.9088 8.89598 12.8213 8.99241L12.3907 8.51724L12.8205 8.99331L12.8197 8.9951L12.8181 8.9969L12.8132 9.00228L12.8083 9.00676L12.8002 9.01572L12.7636 9.05159C12.593 9.20938 12.4053 9.34476 12.2063 9.45503C11.8268 9.66483 11.2776 9.86207 10.5625 9.86207C9.99339 9.86948 9.43054 9.7301 8.91884 9.45503C8.71952 9.34481 8.53247 9.20942 8.36146 9.05159L8.3249 9.01572L8.3119 9.00228L8.30702 8.9969L8.30377 8.99331V8.99241C8.2163 8.89598 8.15748 8.77246 8.13513 8.63827C8.11278 8.50408 8.12796 8.36555 8.17864 8.2411L9.89466 4.03448H9.76304C9.51522 4.03448 9.27228 3.96366 9.05778 3.82738L8.00964 3.16752C7.97904 3.14795 7.94426 3.13774 7.90889 3.13793H7.10938V11.6552H9.14066C9.30227 11.6552 9.45727 11.726 9.57155 11.8521C9.68583 11.9782 9.75004 12.1493 9.75004 12.3276C9.75004 12.5059 9.68583 12.677 9.57155 12.8031C9.45727 12.9292 9.30227 13 9.14066 13H3.85934C3.69773 13 3.54273 12.9292 3.42845 12.8031C3.31416 12.677 3.24996 12.5059 3.24996 12.3276C3.24996 12.1493 3.31416 11.9782 3.42845 11.8521C3.54273 11.726 3.69773 11.6552 3.85934 11.6552H5.89062V3.13793H5.09111C5.05574 3.13774 5.02096 3.14795 4.99036 3.16752L3.94303 3.82828C3.72772 3.96276 3.48478 4.03448 3.23696 4.03448H3.10534L4.82136 8.2411C4.87204 8.36555 4.88722 8.50408 4.86487 8.63827C4.84252 8.77246 4.7837 8.89598 4.69623 8.99241L4.2656 8.51724L4.69542 8.99331L4.6946 8.9951L4.69298 8.9969L4.6881 9.00228L4.6751 9.01572L4.63854 9.05159C4.46791 9.20938 4.28022 9.34476 4.08116 9.45503C3.70172 9.66483 3.15246 9.86207 2.43745 9.86207C1.8683 9.86948 1.30545 9.7301 0.793746 9.45503C0.594424 9.34481 0.407377 9.20942 0.236364 9.05159L0.199801 9.01572L0.186801 9.00228L0.181926 8.9969L0.178676 8.99331V8.99241C0.0912029 8.89598 0.032386 8.77246 0.0100368 8.63827C-0.0123123 8.50408 0.00286381 8.36555 0.0535497 8.2411L1.76957 4.03448H1.42182C1.2602 4.03448 1.1052 3.96364 0.990918 3.83754C0.876636 3.71144 0.812434 3.5404 0.812434 3.36207C0.812434 3.18373 0.876636 3.0127 0.990918 2.8866C1.1052 2.7605 1.2602 2.68966 1.42182 2.68966H3.23696C3.27259 2.68983 3.30762 2.67963 3.33853 2.66007L4.38504 1.99931C4.60035 1.86483 4.84329 1.7931 5.09111 1.7931H5.89062V0.672414C5.89062 0.494079 5.95482 0.323047 6.0691 0.196945C6.18338 0.0708434 6.33838 0 6.5 0C6.66162 0 6.81662 0.0708434 6.9309 0.196945C7.04518 0.323047 7.10938 0.494079 7.10938 0.672414ZM9.50222 8.27248C9.73379 8.39352 10.0856 8.51724 10.5625 8.51724C11.0395 8.51724 11.3913 8.39352 11.6229 8.27248L10.5625 5.67248L9.50222 8.27248ZM1.37713 8.27248C1.60869 8.39352 1.96051 8.51724 2.43745 8.51724C2.9144 8.51724 3.26621 8.39352 3.49778 8.27248L2.43745 5.67248L1.37713 8.27248Z" fill="#CC6E45"/>
</svg>
