<svg width="27" height="11" viewBox="0 0 27 11" fill="none" xmlns="http://www.w3.org/2000/svg">
<path d="M26.2308 4.92H24.3077C24.3077 4.41078 24.0646 3.92242 23.6318 3.56235C23.199 3.20229 22.612 3 22 3C21.388 3 20.801 3.20229 20.3682 3.56235C19.9354 3.92242 19.6923 4.41078 19.6923 4.92H17.7692C17.5652 4.92 17.3696 4.98743 17.2253 5.10745C17.081 5.22747 17 5.39026 17 5.56V10.36C17 10.5297 17.081 10.6925 17.2253 10.8125C17.3696 10.9326 17.5652 11 17.7692 11H26.2308C26.4348 11 26.6304 10.9326 26.7747 10.8125C26.919 10.6925 27 10.5297 27 10.36V5.56C27 5.39026 26.919 5.22747 26.7747 5.10745C26.6304 4.98743 26.4348 4.92 26.2308 4.92ZM20.4615 6.52C20.4615 6.60487 20.421 6.68626 20.3489 6.74627C20.2768 6.80629 20.1789 6.84 20.0769 6.84C19.9749 6.84 19.8771 6.80629 19.805 6.74627C19.7328 6.68626 19.6923 6.60487 19.6923 6.52V5.88C19.6923 5.79513 19.7328 5.71374 19.805 5.65373C19.8771 5.59371 19.9749 5.56 20.0769 5.56C20.1789 5.56 20.2768 5.59371 20.3489 5.65373C20.421 5.71374 20.4615 5.79513 20.4615 5.88V6.52ZM22 3.64C22.408 3.64 22.7993 3.77486 23.0879 4.0149C23.3764 4.25495 23.5385 4.58052 23.5385 4.92H20.4615C20.4615 4.58052 20.6236 4.25495 20.9121 4.0149C21.2007 3.77486 21.592 3.64 22 3.64ZM24.3077 6.52C24.3077 6.60487 24.2672 6.68626 24.195 6.74627C24.1229 6.80629 24.0251 6.84 23.9231 6.84C23.8211 6.84 23.7232 6.80629 23.6511 6.74627C23.579 6.68626 23.5385 6.60487 23.5385 6.52V5.88C23.5385 5.79513 23.579 5.71374 23.6511 5.65373C23.7232 5.59371 23.8211 5.56 23.9231 5.56C24.0251 5.56 24.1229 5.59371 24.195 5.65373C24.2672 5.71374 24.3077 5.79513 24.3077 5.88V6.52Z" fill="#818181"/>
<path d="M10.2873 6.33593V10.4513C10.2873 10.5999 10.2401 10.7285 10.1458 10.8371C10.0516 10.9457 9.9399 11 9.81089 11H6.95272V7.70772H5.04728V11H2.18911C2.0601 11 1.94845 10.9457 1.85417 10.8371C1.75989 10.7285 1.71275 10.5999 1.71275 10.4513V6.33593C1.71275 6.33022 1.71399 6.32164 1.71647 6.31021C1.71895 6.29878 1.72019 6.29021 1.72019 6.28449L6 2.22058L10.2798 6.28449C10.2848 6.29592 10.2873 6.31307 10.2873 6.33593ZM11.9471 5.74435L11.4856 6.3788C11.4459 6.43024 11.3938 6.46168 11.3293 6.47311H11.307C11.2425 6.47311 11.1904 6.4531 11.1507 6.41309L6 1.4661L0.849345 6.41309C0.7898 6.45882 0.730255 6.47883 0.67071 6.47311C0.606203 6.46168 0.554101 6.43024 0.514404 6.3788L0.052929 5.74435C0.0132323 5.68719 -0.00413508 5.62003 0.000827016 5.54287C0.00578911 5.46571 0.0330806 5.40426 0.0827016 5.35853L5.43432 0.222915C5.59311 0.074305 5.78167 0 6 0C6.21833 0 6.40689 0.074305 6.56568 0.222915L8.38181 1.97194V0.300078C8.38181 0.220057 8.40413 0.154326 8.44879 0.102884C8.49345 0.0514419 8.55052 0.025721 8.61999 0.025721H10.0491C10.1185 0.025721 10.1756 0.0514419 10.2203 0.102884C10.2649 0.154326 10.2873 0.220057 10.2873 0.300078V3.79813L11.9173 5.35853C11.9669 5.40426 11.9942 5.46571 11.9992 5.54287C12.0041 5.62003 11.9868 5.68719 11.9471 5.74435Z" fill="#818181"/>
<path d="M13.711 9.06392C13.4127 9.06392 13.1563 9.00994 12.9419 8.90199C12.7274 8.79403 12.5619 8.64844 12.4454 8.4652C12.3303 8.28054 12.2728 8.07244 12.2728 7.84091C12.2728 7.66619 12.3083 7.51136 12.3794 7.37642C12.4518 7.24148 12.5512 7.11648 12.6776 7.00142C12.8055 6.88636 12.9532 6.77202 13.1208 6.65838L13.8943 6.1321C14.0079 6.05824 14.0938 5.98011 14.1521 5.89773C14.2117 5.81534 14.2416 5.71875 14.2416 5.60795C14.2416 5.5142 14.2018 5.42543 14.1222 5.34162C14.0441 5.25781 13.9362 5.21591 13.7984 5.21591C13.7061 5.21591 13.6244 5.23793 13.5534 5.28196C13.4838 5.32457 13.4291 5.38068 13.3893 5.45028C13.3509 5.51989 13.3318 5.59375 13.3318 5.67188C13.3318 5.76705 13.358 5.86364 13.4106 5.96165C13.4646 6.05966 13.5342 6.16122 13.6194 6.26634C13.7061 6.37145 13.7984 6.48295 13.8964 6.60085L15.944 9H15.1088L13.4085 7.05256C13.282 6.90483 13.1599 6.75923 13.042 6.61577C12.9255 6.4723 12.8296 6.32315 12.7544 6.16832C12.6805 6.01207 12.6436 5.84304 12.6436 5.66122C12.6436 5.45526 12.6911 5.27131 12.7863 5.10938C12.8815 4.94602 13.0143 4.81747 13.1847 4.72372C13.3566 4.62997 13.5576 4.5831 13.7877 4.5831C14.0178 4.5831 14.2153 4.62855 14.3801 4.71946C14.5448 4.81037 14.672 4.93111 14.7615 5.08168C14.8509 5.23224 14.8957 5.39631 14.8957 5.57386C14.8957 5.77983 14.8445 5.96449 14.7423 6.12784C14.64 6.28977 14.498 6.43679 14.3161 6.56889L13.434 7.21449C13.2892 7.3196 13.1855 7.42614 13.123 7.53409C13.0605 7.64062 13.0292 7.73153 13.0292 7.80682C13.0292 7.92187 13.0583 8.02628 13.1166 8.12003C13.1748 8.21378 13.2565 8.28906 13.3616 8.34588C13.4681 8.40128 13.5924 8.42898 13.7345 8.42898C13.8907 8.42898 14.0448 8.39418 14.1968 8.32457C14.3488 8.25355 14.4873 8.1527 14.6123 8.02202C14.7373 7.89134 14.8367 7.73509 14.9106 7.55327C14.9845 7.37003 15.0214 7.1669 15.0214 6.94389H15.684C15.684 7.21946 15.6535 7.45952 15.5924 7.66406C15.5313 7.86719 15.4525 8.03906 15.3559 8.17969C15.2593 8.31889 15.157 8.4304 15.0491 8.5142C15.015 8.53835 14.9823 8.5625 14.9511 8.58665C14.9198 8.6108 14.8872 8.63494 14.8531 8.65909C14.6997 8.7983 14.52 8.90057 14.314 8.96591C14.1095 9.03125 13.9085 9.06392 13.711 9.06392Z" fill="#818181"/>
</svg>
