<svg width="28" height="38" viewBox="0 0 28 38" fill="none" xmlns="http://www.w3.org/2000/svg">
<path d="M24.5 12.6667H22.75V9.04762C22.75 4.05333 18.83 0 14 0C9.17 0 5.25 4.05333 5.25 9.04762V12.6667H3.5C1.575 12.6667 0 14.2952 0 16.2857V34.381C0 36.3714 1.575 38 3.5 38H24.5C26.425 38 28 36.3714 28 34.381V16.2857C28 14.2952 26.425 12.6667 24.5 12.6667ZM14 28.9524C12.075 28.9524 10.5 27.3238 10.5 25.3333C10.5 23.3429 12.075 21.7143 14 21.7143C15.925 21.7143 17.5 23.3429 17.5 25.3333C17.5 27.3238 15.925 28.9524 14 28.9524ZM8.75 12.6667V9.04762C8.75 6.04381 11.095 3.61905 14 3.61905C16.905 3.61905 19.25 6.04381 19.25 9.04762V12.6667H8.75Z" fill="black"/>
</svg>
