<svg width="24" height="24" viewBox="0 0 24 24" fill="none" xmlns="http://www.w3.org/2000/svg">
<path d="M12.2566 2.9467C10.0887 2.943 7.98579 3.68634 6.30184 5.05158H8.04679C8.32592 5.05158 8.59361 5.16246 8.79098 5.35983C8.98835 5.55721 9.09923 5.8249 9.09923 6.10402C9.09923 6.38315 8.98835 6.65084 8.79098 6.84821C8.59361 7.04558 8.32592 7.15647 8.04679 7.15647H3.83702C3.69765 7.15648 3.55967 7.12881 3.43108 7.07507C3.30249 7.02132 3.18586 6.94257 3.08795 6.84339C2.99004 6.74421 2.9128 6.62657 2.86073 6.4973C2.80865 6.36803 2.78276 6.2297 2.78457 6.09034V1.89425C2.78457 1.61513 2.89546 1.34743 3.09283 1.15006C3.2902 0.952692 3.55789 0.84181 3.83702 0.84181C4.11614 0.84181 4.38384 0.952692 4.58121 1.15006C4.77858 1.34743 4.88946 1.61513 4.88946 1.89425V3.48765C6.96155 1.77371 9.56748 0.837805 12.2566 0.84181C18.6502 0.84181 23.8334 6.02509 23.8334 12.4187C23.8334 18.8123 18.6502 23.9956 12.2566 23.9956C5.86297 23.9956 0.679688 18.8123 0.679688 12.4187C0.679688 12.0293 0.698631 11.643 0.736519 11.262C0.748488 11.1232 0.78792 10.9881 0.852526 10.8646C0.917131 10.7411 1.00562 10.6316 1.11287 10.5426C1.22011 10.4536 1.34397 10.3868 1.47725 10.346C1.61053 10.3052 1.75058 10.2914 1.88928 10.3052C2.02797 10.319 2.16254 10.3602 2.28517 10.4264C2.40781 10.4926 2.51607 10.5825 2.60367 10.691C2.69127 10.7994 2.75646 10.9241 2.79547 11.0579C2.83447 11.1917 2.84651 11.3319 2.83088 11.4704C2.63929 13.3746 3.029 15.2922 3.94869 16.9705C4.86837 18.6488 6.27488 20.0092 7.98294 20.8724C9.691 21.7356 11.6205 22.0612 13.5172 21.8062C15.4139 21.5513 17.189 20.7277 18.6084 19.4441C20.0279 18.1604 21.0252 16.4769 21.469 14.6153C21.9129 12.7537 21.7824 10.8013 21.0947 9.0153C20.4071 7.22932 19.1946 5.69352 17.6169 4.61023C16.0392 3.52693 14.1704 2.94695 12.2566 2.9467ZM13.309 6.10402C13.309 5.8249 13.1981 5.55721 13.0008 5.35983C12.8034 5.16246 12.5357 5.05158 12.2566 5.05158C11.9774 5.05158 11.7097 5.16246 11.5124 5.35983C11.315 5.55721 11.2041 5.8249 11.2041 6.10402V12.4187C11.2041 12.6978 11.315 12.9655 11.5124 13.1629C11.7097 13.3602 11.9774 13.4711 12.2566 13.4711H16.4663C16.7455 13.4711 17.0132 13.3602 17.2105 13.1629C17.4079 12.9655 17.5188 12.6978 17.5188 12.4187C17.5188 12.1396 17.4079 11.8719 17.2105 11.6745C17.0132 11.4771 16.7455 11.3662 16.4663 11.3662H13.309V6.10402Z" fill="white"/>
</svg>
