<svg width="39" height="33" viewBox="0 0 39 33" fill="none" xmlns="http://www.w3.org/2000/svg">
<path d="M33.1468 18.9915V31.2641C33.1468 31.7073 32.9968 32.0908 32.6967 32.4147C32.3966 32.7385 32.0412 32.9005 31.6306 32.9005H22.533V23.0823H16.4679V32.9005H7.37032C6.95967 32.9005 6.60429 32.7385 6.3042 32.4147C6.0041 32.0908 5.85406 31.7073 5.85406 31.2641V18.9915C5.85406 18.9744 5.858 18.9488 5.8659 18.9148C5.8738 18.8807 5.87775 18.8551 5.87775 18.8381L19.5004 6.7188L33.1231 18.8381C33.1389 18.8721 33.1468 18.9233 33.1468 18.9915ZM38.4301 17.2273L36.9612 19.1193C36.8348 19.2727 36.669 19.3665 36.4637 19.4006H36.3926C36.1873 19.4006 36.0214 19.3409 35.8951 19.2216L19.5004 4.46881L3.10582 19.2216C2.91629 19.3579 2.72676 19.4176 2.53722 19.4006C2.3319 19.3665 2.16606 19.2727 2.0397 19.1193L0.570818 17.2273C0.444462 17.0568 0.389182 16.8565 0.404976 16.6264C0.420771 16.3963 0.50764 16.2131 0.665584 16.0767L17.6999 0.761449C18.2053 0.318269 18.8055 0.0966797 19.5004 0.0966797C20.1954 0.0966797 20.7956 0.318269 21.301 0.761449L27.0818 5.97733V0.991561C27.0818 0.752926 27.1528 0.556904 27.295 0.403496C27.4371 0.250088 27.6188 0.173384 27.8399 0.173384H32.3887C32.6098 0.173384 32.7915 0.250088 32.9336 0.403496C33.0758 0.556904 33.1468 0.752926 33.1468 0.991561V11.4233L38.3353 16.0767C38.4932 16.2131 38.5801 16.3963 38.5959 16.6264C38.6117 16.8565 38.5564 17.0568 38.4301 17.2273Z" fill="white"/>
</svg>
