<svg width="71" height="71" viewBox="0 0 71 71" fill="none" xmlns="http://www.w3.org/2000/svg">
<circle cx="35.5" cy="35.5" r="35.5" fill="#FFA178"/>
<path d="M49.1468 37.9915V50.2641C49.1468 50.7073 48.9968 51.0908 48.6967 51.4147C48.3966 51.7385 48.0412 51.9005 47.6306 51.9005H38.533V42.0823H32.4679V51.9005H23.3703C22.9597 51.9005 22.6043 51.7385 22.3042 51.4147C22.0041 51.0908 21.8541 50.7073 21.8541 50.2641V37.9915C21.8541 37.9744 21.858 37.9488 21.8659 37.9148C21.8738 37.8807 21.8777 37.8551 21.8777 37.8381L35.5004 25.7188L49.1231 37.8381C49.1389 37.8721 49.1468 37.9233 49.1468 37.9915ZM54.4301 36.2273L52.9612 38.1193C52.8348 38.2727 52.669 38.3665 52.4637 38.4006H52.3926C52.1873 38.4006 52.0214 38.3409 51.8951 38.2216L35.5004 23.4688L19.1058 38.2216C18.9163 38.3579 18.7268 38.4176 18.5372 38.4006C18.3319 38.3665 18.1661 38.2727 18.0397 38.1193L16.5708 36.2273C16.4445 36.0568 16.3892 35.8565 16.405 35.6264C16.4208 35.3963 16.5076 35.2131 16.6656 35.0767L33.6999 19.7614C34.2053 19.3183 34.8055 19.0967 35.5004 19.0967C36.1954 19.0967 36.7956 19.3183 37.301 19.7614L43.0818 24.9773V19.9916C43.0818 19.7529 43.1528 19.5569 43.295 19.4035C43.4371 19.2501 43.6188 19.1734 43.8399 19.1734H48.3887C48.6098 19.1734 48.7915 19.2501 48.9336 19.4035C49.0758 19.5569 49.1468 19.7529 49.1468 19.9916V30.4233L54.3353 35.0767C54.4932 35.2131 54.5801 35.3963 54.5959 35.6264C54.6117 35.8565 54.5564 36.0568 54.4301 36.2273Z" fill="white"/>
</svg>
