<svg width="56" height="55" viewBox="0 0 56 55" fill="none" xmlns="http://www.w3.org/2000/svg">
<g filter="url(#filter0_i_3545_3068)">
<circle cx="28.2568" cy="27.4189" r="27.4189" fill="#FFA178"/>
</g>
<path d="M28.2566 17.9467C26.0887 17.943 23.9858 18.6863 22.3018 20.0516H24.0468C24.3259 20.0516 24.5936 20.1625 24.791 20.3598C24.9884 20.5572 25.0992 20.8249 25.0992 21.104C25.0992 21.3831 24.9884 21.6508 24.791 21.8482C24.5936 22.0456 24.3259 22.1565 24.0468 22.1565H19.837C19.6976 22.1565 19.5597 22.1288 19.4311 22.0751C19.3025 22.0213 19.1859 21.9426 19.0879 21.8434C18.99 21.7442 18.9128 21.6266 18.8607 21.4973C18.8086 21.368 18.7828 21.2297 18.7846 21.0903V16.8943C18.7846 16.6151 18.8955 16.3474 19.0928 16.1501C19.2902 15.9527 19.5579 15.8418 19.837 15.8418C20.1161 15.8418 20.3838 15.9527 20.5812 16.1501C20.7786 16.3474 20.8895 16.6151 20.8895 16.8943V18.4877C22.9616 16.7737 25.5675 15.8378 28.2566 15.8418C34.6502 15.8418 39.8334 21.0251 39.8334 27.4187C39.8334 33.8123 34.6502 38.9956 28.2566 38.9956C21.863 38.9956 16.6797 33.8123 16.6797 27.4187C16.6797 27.0293 16.6986 26.643 16.7365 26.262C16.7485 26.1232 16.7879 25.9881 16.8525 25.8646C16.9171 25.7411 17.0056 25.6316 17.1129 25.5426C17.2201 25.4536 17.344 25.3868 17.4772 25.346C17.6105 25.3052 17.7506 25.2914 17.8893 25.3052C18.028 25.319 18.1625 25.3602 18.2852 25.4264C18.4078 25.4926 18.5161 25.5825 18.6037 25.691C18.6913 25.7994 18.7565 25.9241 18.7955 26.0579C18.8345 26.1917 18.8465 26.3319 18.8309 26.4704C18.6393 28.3746 19.029 30.2922 19.9487 31.9705C20.8684 33.6488 22.2749 35.0092 23.9829 35.8724C25.691 36.7356 27.6205 37.0612 29.5172 36.8062C31.4139 36.5513 33.189 35.7277 34.6084 34.4441C36.0279 33.1604 37.0252 31.4769 37.469 29.6153C37.9129 27.7537 37.7824 25.8013 37.0947 24.0153C36.4071 22.2293 35.1946 20.6935 33.6169 19.6102C32.0392 18.5269 30.1704 17.947 28.2566 17.9467ZM29.309 21.104C29.309 20.8249 29.1981 20.5572 29.0008 20.3598C28.8034 20.1625 28.5357 20.0516 28.2566 20.0516C27.9774 20.0516 27.7097 20.1625 27.5124 20.3598C27.315 20.5572 27.2041 20.8249 27.2041 21.104V27.4187C27.2041 27.6978 27.315 27.9655 27.5124 28.1629C27.7097 28.3602 27.9774 28.4711 28.2566 28.4711H32.4663C32.7455 28.4711 33.0132 28.3602 33.2105 28.1629C33.4079 27.9655 33.5188 27.6978 33.5188 27.4187C33.5188 27.1396 33.4079 26.8719 33.2105 26.6745C33.0132 26.4771 32.7455 26.3662 32.4663 26.3662H29.309V21.104Z" fill="white"/>
<defs>
<filter id="filter0_i_3545_3068" x="0.837891" y="0" width="54.8379" height="56.8379" filterUnits="userSpaceOnUse" color-interpolation-filters="sRGB">
<feFlood flood-opacity="0" result="BackgroundImageFix"/>
<feBlend mode="normal" in="SourceGraphic" in2="BackgroundImageFix" result="shape"/>
<feColorMatrix in="SourceAlpha" type="matrix" values="0 0 0 0 0 0 0 0 0 0 0 0 0 0 0 0 0 0 127 0" result="hardAlpha"/>
<feOffset dy="2"/>
<feGaussianBlur stdDeviation="1"/>
<feComposite in2="hardAlpha" operator="arithmetic" k2="-1" k3="1"/>
<feColorMatrix type="matrix" values="0 0 0 0 0 0 0 0 0 0 0 0 0 0 0 0 0 0 0.25 0"/>
<feBlend mode="normal" in2="shape" result="effect1_innerShadow_3545_3068"/>
</filter>
</defs>
</svg>
