<svg width="55" height="55" viewBox="0 0 55 55" fill="none" xmlns="http://www.w3.org/2000/svg">
<g filter="url(#filter0_i_3545_3062)">
<circle cx="27.4189" cy="27.4189" r="27.4189" fill="#FFA178"/>
</g>
<path d="M20.4877 38.7976C19.8033 38.7976 19.2179 38.574 18.7312 38.127C18.2437 37.6791 18 37.1255 18 36.4661V19.9144C18 19.2724 18.222 18.7093 18.6659 18.2251C19.1098 17.74 19.6572 17.431 20.308 17.298L31.3366 15V33.1146L20.205 35.4944C19.9529 35.5514 19.7317 35.6654 19.5416 35.8365C19.3515 36.0075 19.2564 36.2174 19.2564 36.4661C19.2564 36.7884 19.3787 37.0512 19.6233 37.2544C19.8687 37.4569 20.1572 37.5581 20.4889 37.5581H34.3331V18.9663H35.5895V38.7976H20.4877ZM20.9965 34.0752L22.2529 33.8187V18.173L20.9965 18.4296V34.0752Z" fill="white"/>
<defs>
<filter id="filter0_i_3545_3062" x="0" y="0" width="54.8379" height="56.8379" filterUnits="userSpaceOnUse" color-interpolation-filters="sRGB">
<feFlood flood-opacity="0" result="BackgroundImageFix"/>
<feBlend mode="normal" in="SourceGraphic" in2="BackgroundImageFix" result="shape"/>
<feColorMatrix in="SourceAlpha" type="matrix" values="0 0 0 0 0 0 0 0 0 0 0 0 0 0 0 0 0 0 127 0" result="hardAlpha"/>
<feOffset dy="2"/>
<feGaussianBlur stdDeviation="1"/>
<feComposite in2="hardAlpha" operator="arithmetic" k2="-1" k3="1"/>
<feColorMatrix type="matrix" values="0 0 0 0 0 0 0 0 0 0 0 0 0 0 0 0 0 0 0.25 0"/>
<feBlend mode="normal" in2="shape" result="effect1_innerShadow_3545_3062"/>
</filter>
</defs>
</svg>
