<svg width="24" height="24" viewBox="0 0 24 24" fill="none" xmlns="http://www.w3.org/2000/svg">
<path d="M20.7501 12.0007C20.7501 11.7323 20.7384 11.4757 20.7151 11.2073L22.8851 9.56232C23.3518 9.21232 23.4801 8.55898 23.1884 8.04565L21.0068 4.27732C20.8669 4.0302 20.6406 3.84348 20.3714 3.75304C20.1023 3.6626 19.8092 3.6748 19.5484 3.78732L17.0401 4.84898C16.6084 4.54565 16.1534 4.27732 15.6751 4.05565L15.3368 1.36065C15.2668 0.777318 14.7651 0.333984 14.1818 0.333984H9.8301C9.2351 0.333984 8.73343 0.777318 8.66343 1.36065L8.3251 4.05565C7.84677 4.27732 7.39176 4.54565 6.9601 4.84898L4.45176 3.78732C3.9151 3.55398 3.2851 3.76398 2.99343 4.27732L0.811764 8.05732C0.520098 8.57065 0.648431 9.21232 1.1151 9.57398L3.2851 11.219C3.23674 11.7429 3.23674 12.2701 3.2851 12.794L1.1151 14.439C0.648431 14.789 0.520098 15.4423 0.811764 15.9557L2.99343 19.724C3.2851 20.2373 3.9151 20.4473 4.45176 20.214L6.9601 19.1523C7.39176 19.4557 7.84677 19.724 8.3251 19.9457L8.66343 22.6407C8.73343 23.224 9.2351 23.6673 9.81843 23.6673H14.1701C14.7534 23.6673 15.2551 23.224 15.3251 22.6407L15.6634 19.9457C16.1418 19.724 16.5968 19.4557 17.0284 19.1523L19.5368 20.214C20.0734 20.4473 20.7034 20.2373 20.9951 19.724L23.1768 15.9557C23.4684 15.4423 23.3401 14.8007 22.8734 14.439L20.7034 12.794C20.7384 12.5257 20.7501 12.269 20.7501 12.0007ZM12.0468 16.084C9.7951 16.084 7.96343 14.2523 7.96343 12.0007C7.96343 9.74898 9.7951 7.91732 12.0468 7.91732C14.2984 7.91732 16.1301 9.74898 16.1301 12.0007C16.1301 14.2523 14.2984 16.084 12.0468 16.084Z" fill="#8A8A8A" fill-opacity="0.6"/>
</svg>
